<?xml version="1.0" standalone="no"?>
<!DOCTYPE svg PUBLIC "-//W3C//DTD SVG 20010904//EN"
 "http://www.w3.org/TR/2001/REC-SVG-20010904/DTD/svg10.dtd">
<svg version="1.0" xmlns="http://www.w3.org/2000/svg"
 width="640.000000pt" height="1280.000000pt" viewBox="0 0 640.000000 1280.000000"
 preserveAspectRatio="xMidYMid meet">
<metadata>
Created by potrace 1.15, written by Peter Selinger 2001-2017
</metadata>
<g transform="translate(0.000000,1280.000000) scale(0.100000,-0.100000)"
fill="#000000" stroke="none">
<path d="M1855 12779 c-90 -29 -167 -85 -184 -134 -28 -83 29 -181 120 -205
50 -14 193 -7 299 13 41 8 78 10 98 5 25 -7 100 -84 349 -361 339 -376 1406
-1558 1662 -1842 298 -329 552 -635 653 -785 l50 -75 -6 -75 c-4 -41 -11 -129
-15 -195 -4 -66 -15 -138 -23 -161 -64 -168 -151 -265 -322 -359 -73 -40 -136
-85 -190 -134 -45 -41 -104 -89 -133 -107 -92 -60 -257 -104 -385 -104 -46 0
-63 5 -79 21 -19 19 -20 29 -16 107 2 48 10 118 17 155 15 84 2 193 -39 335
-16 53 -41 138 -55 187 -17 56 -30 132 -35 204 -12 159 -25 175 -191 258 -172
85 -236 105 -340 106 -103 0 -188 -21 -297 -72 -184 -88 -249 -205 -260 -467
-8 -194 25 -289 170 -481 39 -52 66 -98 61 -101 -5 -4 -36 -25 -69 -46 -114
-74 -148 -121 -187 -264 -19 -68 -22 -102 -21 -292 1 -118 11 -465 22 -771
l21 -557 34 -133 c81 -313 167 -583 207 -650 21 -36 39 -76 39 -89 0 -13 -22
-72 -50 -131 -132 -285 -122 -546 34 -844 19 -37 33 -93 51 -210 32 -198 47
-259 91 -358 46 -104 45 -149 -1 -213 -75 -105 -78 -115 -170 -556 -57 -274
-57 -295 -3 -355 l20 -21 -33 -7 c-54 -12 -111 -40 -165 -81 -52 -39 -488
-493 -955 -994 -135 -146 -274 -288 -308 -317 -59 -50 -236 -146 -355 -193
-190 -75 -308 -336 -208 -460 18 -22 17 -25 -15 -104 -18 -44 -38 -105 -44
-135 -12 -59 -8 -185 9 -271 6 -30 15 -85 21 -122 12 -86 43 -151 99 -205 82
-80 268 -152 326 -125 38 17 54 58 75 201 29 188 48 259 76 293 14 16 28 42
31 56 17 85 31 120 69 171 23 31 52 65 65 76 40 35 81 104 103 173 18 55 26
68 45 70 16 3 102 -44 273 -147 137 -83 254 -151 259 -151 12 0 321 390 489
618 194 264 677 941 775 1086 94 140 192 330 226 438 15 48 27 73 32 65 16
-25 117 -345 126 -402 6 -35 13 -444 17 -975 l6 -915 25 -37 c30 -46 31 -99 4
-163 -48 -113 -62 -170 -67 -287 -6 -115 -5 -117 20 -142 l26 -26 548 0 c490
1 553 3 598 18 48 16 50 19 57 62 12 80 9 189 -7 226 -12 29 -27 41 -91 71
-69 33 -85 37 -165 38 -73 0 -93 4 -116 21 -50 37 -92 134 -59 134 50 0 89 61
105 165 16 104 -27 2049 -50 2220 -5 43 -26 158 -44 255 -88 445 -114 655
-121 975 -6 236 -7 243 -50 440 -74 341 -84 440 -88 829 -4 399 -6 419 -117
1191 -51 358 -78 575 -75 603 12 89 38 115 221 212 55 29 120 67 144 83 95 65
958 843 1024 923 55 68 141 236 157 308 9 40 7 60 -10 123 -47 173 -128 280
-320 423 -58 44 -139 106 -180 140 -62 51 -80 60 -105 57 -16 -3 -40 -1 -52 4
-11 4 -209 218 -439 476 -1996 2234 -2317 2589 -2442 2704 -95 89 -177 107
-297 68z"/>
</g>
</svg>
